# 
# Wavefront OBJ file
# Converted by the DEEP Exploration Deep Exploration 4.0.10.871 Release
# Right Hemisphere, LTD
# http://www.righthemisphere.com/
# 
mtllib box.mtl
# object Box01
g Box01
v -11.6272 -11.2722 -9.94083
v 11.6272 -11.2722 -9.94083
v -11.6272 11.2722 -9.94083
v 11.6272 11.2722 -9.94083
v -11.6272 -11.2722 9.94083
v 11.6272 -11.2722 9.94083
v -11.6272 11.2722 9.94083
v 11.6272 11.2722 9.94083
# 8 verticies
vn 0 0 1
vn 0 0 -1
vn 0 1 0
vn -1 0 0
vn 0 -1 0
vn 1 0 0
# 6 normals
usemtl Explorer_Default
f  4//1 3//1 1//1
f  1//1 2//1 4//1
f  8//2 6//2 5//2
f  5//2 7//2 8//2
f  6//3 2//3 1//3
f  1//3 5//3 6//3
f  8//4 4//4 2//4
f  2//4 6//4 8//4
f  7//5 3//5 4//5
f  4//5 8//5 7//5
f  5//6 1//6 3//6
f  3//6 7//6 5//6
