#
#  Wavefront OBJ file generated by EQUINOX
#  
#  http://www.equinox3d.com/
#  
v -1.130000 6.219999 0.000000
v -0.710000 6.139999 0.000000
v -0.050000 6.069999 0.000000
v 0.550000 6.109999 0.000000
v 1.140000 6.239999 0.000000
v 1.150000 6.279999 0.000000
v 0.550000 6.149999 0.000000
v -0.050000 6.109999 0.000000
v -0.710000 6.179999 0.000000
v -1.140000 6.259999 0.000000
v -1.130000 6.219999 0.050000
v -0.710000 6.139999 0.050000
v -0.050000 6.069999 0.050000
v 0.550000 6.109999 0.050000
v 1.140000 6.239999 0.050000
v 1.150000 6.279999 0.050000
v 0.550000 6.149999 0.050000
v -0.050000 6.109999 0.050000
v -0.710000 6.179999 0.050000
v -1.140000 6.259999 0.050000
v -0.400000 1.349999 0.100000
v -0.400000 1.349999 -0.100000
v -1.150000 6.400000 0.100000
v -1.150000 6.400000 -0.100000
v -0.550000 1.349999 0.100000
v -0.550000 1.349999 -0.100000
v -1.300000 6.399999 0.100000
v -1.300000 6.399999 -0.100000
v 0.400000 1.349999 -0.100000
v 0.400000 1.349999 0.100000
v 1.150000 6.400000 -0.100000
v 1.150000 6.400000 0.100000
v 0.550000 1.349999 -0.100000
v 0.550000 1.349999 0.100000
v 1.300000 6.399999 -0.100000
v 1.300000 6.399999 0.100000
v 1.400000 -1.200000 0.000000
v 0.900000 -1.200000 0.000000
v 1.331479 -1.200000 -0.432624
v 0.855951 -1.200000 -0.278115
v 1.132624 -1.200000 -0.822899
v 0.728115 -1.200000 -0.529007
v 0.822899 -1.200000 -1.132624
v 0.529007 -1.200000 -0.728115
v 0.432624 -1.200000 -1.331479
v 0.278115 -1.200000 -0.855951
v 0.000000 -1.200000 -1.400000
v 0.000000 -1.200000 -0.900000
v -0.432624 -1.200000 -1.331479
v -0.278115 -1.200000 -0.855951
v -0.822899 -1.200000 -1.132624
v -0.529007 -1.200000 -0.728115
v -1.132624 -1.200000 -0.822899
v -0.728115 -1.200000 -0.529007
v -1.331479 -1.200000 -0.432624
v -0.855951 -1.200000 -0.278115
v -1.400000 -1.200000 0.000000
v -0.900000 -1.200000 0.000000
v -1.331479 -1.200000 0.432624
v -0.855951 -1.200000 0.278115
v -1.132624 -1.200000 0.822900
v -0.728115 -1.200000 0.529007
v -0.822899 -1.200000 1.132624
v -0.529007 -1.200000 0.728115
v -0.432624 -1.200000 1.331479
v -0.278115 -1.200000 0.855951
v 0.000000 -1.200000 1.400000
v 0.000000 -1.200000 0.900000
v 0.432624 -1.200000 1.331479
v 0.278115 -1.200000 0.855951
v 0.822900 -1.200000 1.132624
v 0.529007 -1.200000 0.728115
v 1.132624 -1.200000 0.822899
v 0.728116 -1.200000 0.529006
v 1.331479 -1.200000 0.432624
v 0.855951 -1.200000 0.278115
v 1.600000 1.599999 0.000000
v 1.000000 1.300000 0.000000
v 0.000000 1.299999 0.000000
v 1.521691 1.599999 -0.494427
v 0.951057 1.300000 -0.309017
v 1.294427 1.599999 -0.940456
v 0.809017 1.300000 -0.587785
v 0.940456 1.599999 -1.294427
v 0.587785 1.300000 -0.809017
v 0.494427 1.599999 -1.521691
v 0.309017 1.300000 -0.951057
v 0.000000 1.599999 -1.600000
v 0.000000 1.300000 -1.000000
v -0.494427 1.599999 -1.521690
v -0.309017 1.300000 -0.951056
v -0.940456 1.599999 -1.294427
v -0.587785 1.300000 -0.809017
v -1.294427 1.599999 -0.940456
v -0.809017 1.300000 -0.587785
v -1.521691 1.599999 -0.494427
v -0.951057 1.300000 -0.309017
v -1.600000 1.599999 0.000000
v -1.000000 1.300000 0.000000
v -1.521691 1.599999 0.494427
v -0.951057 1.300000 0.309017
v -1.294427 1.599999 0.940457
v -0.809017 1.300000 0.587785
v -0.940456 1.599999 1.294428
v -0.587785 1.300000 0.809017
v -0.494427 1.599999 1.521690
v -0.309017 1.300000 0.951056
v 0.000000 1.599999 1.600000
v 0.000000 1.300000 1.000000
v 0.494427 1.599999 1.521690
v 0.309017 1.300000 0.951056
v 0.940457 1.599999 1.294427
v 0.587785 1.300000 0.809017
v 1.294428 1.599999 0.940456
v 0.809017 1.300000 0.587785
v 1.521691 1.599999 0.494427
v 0.951057 1.300000 0.309017

vn 0.000000 0.000000 1.000000
vn 0.000000 0.000000 1.000000
vn 0.000000 0.000000 1.000000
vn 0.000000 0.000000 1.000000
vn 0.000000 0.000000 1.000000
vn 0.000000 0.000000 1.000000
vn 0.000000 0.000000 1.000000
vn 0.000000 0.000000 1.000000
vn 0.000000 0.000000 1.000000
vn 0.000000 0.000000 1.000000
vn 0.000000 0.000000 1.000000
vn 0.000000 0.000000 1.000000
vn 0.000000 0.000000 1.000000
vn 0.000000 0.000000 1.000000
vn 0.000000 0.000000 1.000000
vn 0.000000 0.000000 1.000000
vn 0.000000 0.000000 1.000000
vn 0.000000 0.000000 1.000000
vn 0.000000 0.000000 1.000000
vn 0.000000 0.000000 1.000000
vn 0.000000 0.000000 1.000000
vn 0.000000 0.000000 1.000000
vn 0.000000 0.000000 1.000000
vn 0.000000 0.000000 1.000000
vn -0.187112 -0.982339 0.000000
vn -0.146415 -0.989223 0.000000
vn -0.187112 -0.982339 0.000000
vn -0.187112 -0.982339 0.000000
vn -0.146415 -0.989223 0.000000
vn -0.146415 -0.989223 0.000000
vn -0.146415 -0.989223 0.000000
vn -0.019547 -0.999809 0.000000
vn -0.146415 -0.989223 0.000000
vn -0.146415 -0.989223 0.000000
vn -0.019547 -0.999809 0.000000
vn -0.019547 -0.999809 0.000000
vn 0.141247 -0.989974 0.000000
vn -0.019547 -0.999809 0.000000
vn -0.019547 -0.999809 0.000000
vn 0.141247 -0.989974 0.000000
vn 0.141247 -0.989974 0.000000
vn -0.019547 -0.999809 0.000000
vn 0.141247 -0.989974 0.000000
vn 0.215178 -0.976575 0.000000
vn 0.141247 -0.989974 0.000000
vn 0.141247 -0.989974 0.000000
vn 0.215178 -0.976575 0.000000
vn 0.215178 -0.976575 0.000000
vn 0.000000 0.000000 -1.000000
vn 0.000000 0.000000 -1.000000
vn 0.000000 0.000000 -1.000000
vn 0.000000 0.000000 -1.000000
vn 0.000000 0.000000 -1.000000
vn 0.000000 0.000000 -1.000000
vn 0.000000 0.000000 -1.000000
vn 0.000000 0.000000 -1.000000
vn 0.000000 0.000000 -1.000000
vn 0.000000 0.000000 -1.000000
vn 0.000000 0.000000 -1.000000
vn 0.000000 0.000000 -1.000000
vn 0.000000 0.000000 -1.000000
vn 0.000000 0.000000 -1.000000
vn 0.000000 0.000000 -1.000000
vn 0.000000 0.000000 -1.000000
vn 0.000000 0.000000 -1.000000
vn 0.000000 0.000000 -1.000000
vn 0.000000 0.000000 -1.000000
vn 0.000000 0.000000 -1.000000
vn 0.000000 0.000000 -1.000000
vn 0.000000 0.000000 -1.000000
vn 0.000000 0.000000 -1.000000
vn 0.000000 0.000000 -1.000000
vn -0.211753 0.977323 0.000000
vn -0.139512 0.990220 0.000000
vn -0.211753 0.977323 0.000000
vn -0.211753 0.977323 0.000000
vn -0.139512 0.990220 0.000000
vn -0.139512 0.990220 0.000000
vn -0.139512 0.990220 0.000000
vn 0.019547 0.999809 0.000000
vn -0.139512 0.990220 0.000000
vn -0.139512 0.990220 0.000000
vn 0.019547 0.999809 0.000000
vn 0.019547 0.999809 0.000000
vn 0.144299 0.989534 0.000000
vn 0.019547 0.999809 0.000000
vn 0.019547 0.999809 0.000000
vn 0.144299 0.989534 0.000000
vn 0.144299 0.989534 0.000000
vn 0.019547 0.999809 0.000000
vn 0.182908 0.983130 0.000000
vn 0.144299 0.989534 0.000000
vn 0.144299 0.989534 0.000000
vn 0.182908 0.983130 0.000000
vn 0.182908 0.983130 0.000000
vn 0.144299 0.989534 0.000000
vn 0.989151 0.146904 0.000000
vn 0.989151 0.146904 0.000000
vn 0.989151 0.146904 0.000000
vn 0.989151 0.146904 0.000000
vn 0.989151 0.146904 0.000000
vn 0.989151 0.146904 0.000000
vn 0.000000 0.000000 -1.000000
vn 0.000000 0.000000 -1.000000
vn 0.000000 0.000000 -1.000000
vn 0.000000 0.000000 -1.000000
vn 0.000000 0.000000 -1.000000
vn 0.000000 0.000000 -1.000000
vn -0.989151 -0.146904 0.000000
vn -0.989151 -0.146904 0.000000
vn -0.989151 -0.146904 0.000000
vn -0.989151 -0.146904 0.000000
vn -0.989151 -0.146904 0.000000
vn -0.989151 -0.146904 0.000000
vn 0.000001 0.000000 1.000000
vn 0.000001 0.000000 1.000000
vn 0.000001 0.000000 1.000000
vn 0.000001 0.000000 1.000000
vn 0.000001 0.000000 1.000000
vn 0.000001 0.000000 1.000000
vn -0.000006 1.000000 0.000000
vn -0.000006 1.000000 0.000000
vn -0.000006 1.000000 0.000000
vn -0.000006 1.000000 0.000000
vn -0.000006 1.000000 0.000000
vn -0.000006 1.000000 0.000000
vn -0.989151 0.146904 0.000000
vn -0.989151 0.146904 0.000000
vn -0.989151 0.146904 0.000000
vn -0.989151 0.146904 0.000000
vn -0.989151 0.146904 0.000000
vn -0.989151 0.146904 0.000000
vn 0.000000 0.000000 1.000000
vn 0.000000 0.000000 1.000000
vn 0.000000 0.000000 1.000000
vn 0.000000 0.000000 1.000000
vn 0.000000 0.000000 1.000000
vn 0.000000 0.000000 1.000000
vn 0.989151 -0.146904 0.000000
vn 0.989151 -0.146904 0.000000
vn 0.989151 -0.146904 0.000000
vn 0.989151 -0.146904 0.000000
vn 0.989151 -0.146904 0.000000
vn 0.989151 -0.146904 0.000000
vn 0.000000 0.000000 -1.000000
vn 0.000000 0.000000 -1.000000
vn 0.000000 0.000000 -1.000000
vn 0.000000 0.000000 -1.000000
vn 0.000000 0.000000 -1.000000
vn 0.000000 0.000000 -1.000000
vn 0.000006 1.000000 0.000000
vn 0.000006 1.000000 0.000000
vn 0.000006 1.000000 0.000000
vn 0.000006 1.000000 0.000000
vn 0.000006 1.000000 0.000000
vn 0.000006 1.000000 0.000000
vn 0.000000 -1.000000 0.000000
vn 0.000000 -1.000000 0.000000
vn 0.000000 -1.000000 0.000000
vn 0.000000 -1.000000 0.000000
vn 0.000000 -1.000000 0.000000
vn 0.000000 -1.000000 0.000000
vn 0.000000 -1.000000 0.000000
vn 0.000000 -1.000000 0.000000
vn 0.000000 -1.000000 0.000000
vn 0.000000 -1.000000 0.000000
vn 0.000000 -1.000000 0.000000
vn 0.000000 -1.000000 0.000000
vn 0.000000 -1.000000 0.000000
vn 0.000000 -1.000000 0.000000
vn 0.000000 -1.000000 0.000000
vn 0.000000 -1.000000 0.000000
vn 0.000000 -1.000000 0.000000
vn 0.000000 -1.000000 0.000000
vn 0.000000 -1.000000 0.000000
vn 0.000000 -1.000000 0.000000
vn 0.000000 -1.000000 0.000000
vn 0.000000 -1.000000 0.000000
vn 0.000000 -1.000000 0.000000
vn 0.000000 -1.000000 0.000000
vn 0.000000 -1.000000 0.000000
vn 0.000000 -1.000000 0.000000
vn 0.000000 -1.000000 0.000000
vn 0.000000 -1.000000 0.000000
vn 0.000000 -1.000000 0.000000
vn 0.000000 -1.000000 0.000000
vn 0.000000 -1.000000 0.000000
vn 0.000000 -1.000000 0.000000
vn 0.000000 -1.000000 0.000000
vn 0.000000 -1.000000 0.000000
vn 0.000000 -1.000000 0.000000
vn 0.000000 -1.000000 0.000000
vn 0.000000 -1.000000 0.000000
vn 0.000000 -1.000000 0.000000
vn 0.000000 -1.000000 0.000000
vn 0.000000 -1.000000 0.000000
vn 0.000000 -1.000000 0.000000
vn 0.000000 -1.000000 0.000000
vn 0.000000 -1.000000 0.000000
vn 0.000000 -1.000000 0.000000
vn 0.000000 -1.000000 0.000000
vn 0.000000 -1.000000 0.000000
vn 0.000000 -1.000000 0.000000
vn 0.000000 -1.000000 0.000000
vn 0.000000 -1.000000 0.000000
vn 0.000000 -1.000000 0.000000
vn 0.000000 -1.000000 0.000000
vn 0.000000 -1.000000 0.000000
vn 0.000000 -1.000000 0.000000
vn 0.000000 -1.000000 0.000000
vn 0.000000 -1.000000 0.000000
vn 0.000000 -1.000000 0.000000
vn 0.000000 -1.000000 0.000000
vn 0.000000 -1.000000 0.000000
vn 0.000000 -1.000000 0.000000
vn 0.000000 -1.000000 0.000000
vn 0.000000 -1.000000 0.000000
vn 0.000000 -1.000000 0.000000
vn 0.000000 -1.000000 0.000000
vn 0.000000 -1.000000 0.000000
vn 0.000000 -1.000000 0.000000
vn 0.000000 -1.000000 0.000000
vn 0.000000 -1.000000 0.000000
vn 0.000000 -1.000000 0.000000
vn 0.000000 -1.000000 0.000000
vn 0.000000 -1.000000 0.000000
vn 0.000000 -1.000000 0.000000
vn 0.000000 -1.000000 0.000000
vn 0.000000 -1.000000 0.000000
vn 0.000000 -1.000000 0.000000
vn 0.000000 -1.000000 0.000000
vn 0.000000 -1.000000 0.000000
vn 0.000000 -1.000000 0.000000
vn 0.000000 -1.000000 0.000000
vn 0.000000 -1.000000 0.000000
vn 0.000000 -1.000000 0.000000
vn 0.000000 -1.000000 0.000000
vn 0.000000 -1.000000 0.000000
vn 0.000000 -1.000000 0.000000
vn 0.000000 -1.000000 0.000000
vn 0.000000 -1.000000 0.000000
vn 0.000000 -1.000000 0.000000
vn 0.000000 -1.000000 0.000000
vn 0.000000 -1.000000 0.000000
vn 0.000000 -1.000000 0.000000
vn 0.000000 -1.000000 0.000000
vn 0.000000 -1.000000 0.000000
vn 0.000000 -1.000000 0.000000
vn 0.000000 -1.000000 0.000000
vn 0.000000 -1.000000 0.000000
vn 0.000000 -1.000000 0.000000
vn 0.000000 -1.000000 0.000000
vn 0.000000 -1.000000 0.000000
vn 0.000000 -1.000000 0.000000
vn 0.000000 -1.000000 0.000000
vn 0.000000 -1.000000 0.000000
vn 0.000000 -1.000000 0.000000
vn 0.000000 -1.000000 0.000000
vn 0.000000 -1.000000 0.000000
vn 0.000000 -1.000000 0.000000
vn 0.000000 -1.000000 0.000000
vn 0.000000 -1.000000 0.000000
vn 0.000000 -1.000000 0.000000
vn 0.000000 -1.000000 0.000000
vn 0.000000 -1.000000 0.000000
vn 0.000000 -1.000000 0.000000
vn 0.000000 -1.000000 0.000000
vn 0.000000 -1.000000 0.000000
vn 0.000000 -1.000000 0.000000
vn 0.000000 -1.000000 0.000000
vn 0.000000 -1.000000 0.000000
vn 0.000000 -1.000000 0.000000
vn 0.000000 -1.000000 0.000000
vn 0.000000 -1.000000 0.000000
vn 0.000000 -1.000000 0.000000
vn 0.000000 -1.000000 0.000000
vn 0.000000 1.000000 0.000000
vn 0.000000 1.000000 0.000000
vn 0.000000 1.000000 0.000000
vn -0.425325 0.894427 -0.138196
vn -0.447213 0.894427 0.000000
vn -0.447213 0.894427 0.000000
vn -0.425325 0.894427 -0.138196
vn -0.425325 0.894427 -0.138196
vn -0.447213 0.894427 0.000000
vn 0.000000 1.000000 0.000000
vn 0.000000 1.000000 0.000000
vn 0.000000 1.000000 0.000000
vn -0.361803 0.894427 -0.262865
vn -0.425325 0.894427 -0.138196
vn -0.425325 0.894427 -0.138196
vn -0.361803 0.894427 -0.262865
vn -0.361803 0.894427 -0.262865
vn -0.425325 0.894427 -0.138196
vn 0.000000 1.000000 0.000000
vn 0.000000 1.000000 0.000000
vn 0.000000 1.000000 0.000000
vn -0.262865 0.894427 -0.361803
vn -0.361803 0.894427 -0.262865
vn -0.262865 0.894427 -0.361803
vn -0.262865 0.894427 -0.361803
vn -0.361803 0.894427 -0.262865
vn -0.361803 0.894427 -0.262865
vn 0.000000 1.000000 0.000000
vn 0.000000 1.000000 0.000000
vn 0.000000 1.000000 0.000000
vn -0.138197 0.894427 -0.425325
vn -0.262865 0.894427 -0.361803
vn -0.138197 0.894427 -0.425325
vn -0.138197 0.894427 -0.425325
vn -0.262865 0.894427 -0.361803
vn -0.262865 0.894427 -0.361803
vn 0.000000 1.000000 0.000000
vn 0.000000 1.000000 0.000000
vn 0.000000 1.000000 0.000000
vn 0.000000 0.894427 -0.447213
vn -0.138197 0.894427 -0.425325
vn -0.138197 0.894427 -0.425325
vn 0.000000 0.894427 -0.447213
vn 0.000000 0.894427 -0.447213
vn -0.138197 0.894427 -0.425325
vn 0.000000 1.000000 0.000000
vn 0.000000 1.000000 0.000000
vn 0.000000 1.000000 0.000000
vn 0.138196 0.894427 -0.425325
vn 0.000000 0.894427 -0.447213
vn 0.138196 0.894427 -0.425325
vn 0.138196 0.894427 -0.425325
vn 0.000000 0.894427 -0.447213
vn 0.000000 0.894427 -0.447213
vn 0.000000 1.000000 0.000000
vn 0.000000 1.000000 0.000000
vn 0.000000 1.000000 0.000000
vn 0.262865 0.894427 -0.361803
vn 0.138196 0.894427 -0.425325
vn 0.138196 0.894427 -0.425325
vn 0.262865 0.894427 -0.361803
vn 0.262865 0.894427 -0.361803
vn 0.138196 0.894427 -0.425325
vn 0.000000 1.000000 0.000000
vn 0.000000 1.000000 0.000000
vn 0.000000 1.000000 0.000000
vn 0.361803 0.894427 -0.262865
vn 0.262865 0.894427 -0.361803
vn 0.262865 0.894427 -0.361803
vn 0.361803 0.894427 -0.262865
vn 0.361803 0.894427 -0.262865
vn 0.262865 0.894427 -0.361803
vn 0.000000 1.000000 0.000000
vn 0.000000 1.000000 0.000000
vn 0.000000 1.000000 0.000000
vn 0.425325 0.894427 -0.138196
vn 0.361803 0.894427 -0.262865
vn 0.425325 0.894427 -0.138196
vn 0.425325 0.894427 -0.138196
vn 0.361803 0.894427 -0.262865
vn 0.361803 0.894427 -0.262865
vn 0.000000 1.000000 0.000000
vn 0.000000 1.000000 0.000000
vn 0.000000 1.000000 0.000000
vn 0.447213 0.894427 0.000000
vn 0.425325 0.894427 -0.138196
vn 0.447213 0.894427 0.000000
vn 0.447213 0.894427 0.000000
vn 0.425325 0.894427 -0.138196
vn 0.425325 0.894427 -0.138196
vn -0.447213 0.894427 0.000000
vn -0.425325 0.894427 0.138196
vn -0.447213 0.894427 0.000000
vn -0.447213 0.894427 0.000000
vn -0.425325 0.894427 0.138196
vn -0.425325 0.894427 0.138196
vn 0.000000 1.000000 0.000000
vn 0.000000 1.000000 0.000000
vn 0.000000 1.000000 0.000000
vn -0.425325 0.894427 0.138196
vn -0.361803 0.894427 0.262865
vn -0.361803 0.894427 0.262865
vn -0.425325 0.894427 0.138196
vn -0.425325 0.894427 0.138196
vn -0.361803 0.894427 0.262865
vn 0.000000 1.000000 0.000000
vn 0.000000 1.000000 0.000000
vn 0.000000 1.000000 0.000000
vn -0.361803 0.894427 0.262865
vn -0.262865 0.894427 0.361803
vn -0.262865 0.894427 0.361803
vn -0.361803 0.894427 0.262865
vn -0.361803 0.894427 0.262865
vn -0.262865 0.894427 0.361803
vn 0.000000 1.000000 0.000000
vn 0.000000 1.000000 0.000000
vn 0.000000 1.000000 0.000000
vn -0.262865 0.894427 0.361803
vn -0.138196 0.894427 0.425325
vn -0.262865 0.894427 0.361803
vn -0.262865 0.894427 0.361803
vn -0.138196 0.894427 0.425325
vn -0.138196 0.894427 0.425325
vn 0.000000 1.000000 0.000000
vn 0.000000 1.000000 0.000000
vn 0.000000 1.000000 0.000000
vn -0.138196 0.894427 0.425325
vn 0.000000 0.894427 0.447213
vn 0.000000 0.894427 0.447213
vn -0.138196 0.894427 0.425325
vn -0.138196 0.894427 0.425325
vn 0.000000 0.894427 0.447213
vn 0.000000 1.000000 0.000000
vn 0.000000 1.000000 0.000000
vn 0.000000 1.000000 0.000000
vn 0.000000 0.894427 0.447213
vn 0.138197 0.894427 0.425325
vn 0.138197 0.894427 0.425325
vn 0.000000 0.894427 0.447213
vn 0.000000 0.894427 0.447213
vn 0.138197 0.894427 0.425325
vn 0.000000 1.000000 0.000000
vn 0.000000 1.000000 0.000000
vn 0.000000 1.000000 0.000000
vn 0.138197 0.894427 0.425325
vn 0.262865 0.894427 0.361803
vn 0.262865 0.894427 0.361803
vn 0.138197 0.894427 0.425325
vn 0.138197 0.894427 0.425325
vn 0.262865 0.894427 0.361803
vn 0.000000 1.000000 0.000000
vn 0.000000 1.000000 0.000000
vn 0.000000 1.000000 0.000000
vn 0.262865 0.894427 0.361803
vn 0.361803 0.894427 0.262865
vn 0.262865 0.894427 0.361803
vn 0.262865 0.894427 0.361803
vn 0.361803 0.894427 0.262865
vn 0.361803 0.894427 0.262865
vn 0.000000 1.000000 0.000000
vn 0.000000 1.000000 0.000000
vn 0.000000 1.000000 0.000000
vn 0.361803 0.894427 0.262865
vn 0.425325 0.894427 0.138196
vn 0.361803 0.894427 0.262865
vn 0.361803 0.894427 0.262865
vn 0.425325 0.894427 0.138196
vn 0.425325 0.894427 0.138196
vn 0.000000 1.000000 0.000000
vn 0.000000 1.000000 0.000000
vn 0.000000 1.000000 0.000000
vn 0.425325 0.894427 0.138196
vn 0.447213 0.894427 0.000000
vn 0.447213 0.894427 0.000000
vn 0.425325 0.894427 0.138196
vn 0.425325 0.894427 0.138196
vn 0.447213 0.894427 0.000000
vn 0.000000 1.000000 0.000000
vn 0.000000 1.000000 0.000000
vn 0.000000 1.000000 0.000000

g default
f 11//1 19//2 20//3 
f 11//4 12//5 19//6 
f 12//7 18//8 19//9 
f 12//10 13//11 18//12 
f 13//13 14//14 18//15 
f 14//16 17//17 18//18 
f 14//19 15//20 17//21 
f 15//22 16//23 17//24 
f 1//25 12//26 11//27 
f 1//28 2//29 12//30 
f 2//31 13//32 12//33 
f 2//34 3//35 13//36 
f 4//37 13//38 3//39 
f 4//40 14//41 13//42 
f 4//43 15//44 14//45 
f 4//46 5//47 15//48 
f 9//49 1//50 10//51 
f 9//52 2//53 1//54 
f 9//55 8//56 2//57 
f 8//58 3//59 2//60 
f 8//61 4//62 3//63 
f 8//64 7//65 4//66 
f 7//67 5//68 4//69 
f 7//70 6//71 5//72 
f 6//73 17//74 16//75 
f 6//76 7//77 17//78 
f 7//79 18//80 17//81 
f 7//82 8//83 18//84 
f 9//85 18//86 8//87 
f 9//88 19//89 18//90 
f 10//91 19//92 9//93 
f 10//94 20//95 19//96 
f 21//97 24//98 23//99 
f 21//100 22//101 24//102 
f 26//103 24//104 22//105 
f 26//106 28//107 24//108 
f 26//109 27//110 28//111 
f 26//112 25//113 27//114 
f 25//115 23//116 27//117 
f 25//118 21//119 23//120 
f 23//121 28//122 27//123 
f 23//124 24//125 28//126 
f 29//127 32//128 31//129 
f 29//130 30//131 32//132 
f 34//133 32//134 30//135 
f 34//136 36//137 32//138 
f 34//139 35//140 36//141 
f 34//142 33//143 35//144 
f 33//145 31//146 35//147 
f 33//148 29//149 31//150 
f 31//151 36//152 35//153 
f 31//154 32//155 36//156 
f 40//157 37//158 38//159 
f 40//160 39//161 37//162 
f 41//163 40//164 42//165 
f 41//166 39//167 40//168 
f 44//169 41//170 42//171 
f 44//172 43//173 41//174 
f 46//175 43//176 44//177 
f 46//178 45//179 43//180 
f 47//181 46//182 48//183 
f 47//184 45//185 46//186 
f 50//187 47//188 48//189 
f 50//190 49//191 47//192 
f 51//193 50//194 52//195 
f 51//196 49//197 50//198 
f 54//199 51//200 52//201 
f 54//202 53//203 51//204 
f 55//205 54//206 56//207 
f 55//208 53//209 54//210 
f 58//211 55//212 56//213 
f 58//214 57//215 55//216 
f 60//217 57//218 58//219 
f 60//220 59//221 57//222 
f 61//223 60//224 62//225 
f 61//226 59//227 60//228 
f 63//229 62//230 64//231 
f 63//232 61//233 62//234 
f 66//235 63//236 64//237 
f 66//238 65//239 63//240 
f 67//241 66//242 68//243 
f 67//244 65//245 66//246 
f 70//247 67//248 68//249 
f 70//250 69//251 67//252 
f 71//253 70//254 72//255 
f 71//256 69//257 70//258 
f 74//259 71//260 72//261 
f 74//262 73//263 71//264 
f 75//265 74//266 76//267 
f 75//268 73//269 74//270 
f 38//271 75//272 76//273 
f 38//274 37//275 75//276 
f 79//277 117//278 78//279 
f 117//280 77//281 78//282 
f 117//283 116//284 77//285 
f 79//286 115//287 117//288 
f 115//289 116//290 117//291 
f 115//292 114//293 116//294 
f 79//295 113//296 115//297 
f 112//298 115//299 113//300 
f 112//301 114//302 115//303 
f 79//304 111//305 113//306 
f 110//307 113//308 111//309 
f 110//310 112//311 113//312 
f 79//313 109//314 111//315 
f 109//316 110//317 111//318 
f 109//319 108//320 110//321 
f 79//322 107//323 109//324 
f 106//325 109//326 107//327 
f 106//328 108//329 109//330 
f 79//331 105//332 107//333 
f 105//334 106//335 107//336 
f 105//337 104//338 106//339 
f 79//340 103//341 105//342 
f 103//343 104//344 105//345 
f 103//346 102//347 104//348 
f 79//349 101//350 103//351 
f 100//352 103//353 101//354 
f 100//355 102//356 103//357 
f 79//358 99//359 101//360 
f 98//361 101//362 99//363 
f 98//364 100//365 101//366 
f 77//367 81//368 78//369 
f 77//370 80//371 81//372 
f 79//373 78//374 81//375 
f 81//376 82//377 83//378 
f 81//379 80//380 82//381 
f 79//382 81//383 83//384 
f 83//385 84//386 85//387 
f 83//388 82//389 84//390 
f 79//391 83//392 85//393 
f 84//394 87//395 85//396 
f 84//397 86//398 87//399 
f 79//400 85//401 87//402 
f 87//403 88//404 89//405 
f 87//406 86//407 88//408 
f 79//409 87//410 89//411 
f 89//412 90//413 91//414 
f 89//415 88//416 90//417 
f 79//418 89//419 91//420 
f 91//421 92//422 93//423 
f 91//424 90//425 92//426 
f 79//427 91//428 93//429 
f 92//430 95//431 93//432 
f 92//433 94//434 95//435 
f 79//436 93//437 95//438 
f 94//439 97//440 95//441 
f 94//442 96//443 97//444 
f 79//445 95//446 97//447 
f 97//448 98//449 99//450 
f 97//451 96//452 98//453 
f 79//454 97//455 99//456 
